<?xml version='1.0' encoding='utf-8'?>
<svg xmlns="http://www.w3.org/2000/svg" enable-background="new 0 0 1920 1920" version="1.1" viewBox="0 0 1920 1920">
	<path d="m1548.6 282.87c18.83-6.09 37.59-14.91 50.93-29.97 1.4 11.83 0.8 24.07-3.35 35.32-6.22 17.19-17.25 32.08-28.46 46.31 8.04-1.78 16.27-2.83 24.15-5.32 26.78-7.88 53.52-15.87 80.3-23.73 10.74 18.99 13.14 41.24 14.57 62.63 1.0599 23.62 0.1699 47.3-2.0701 70.83-2.38 24.65-5.48 49.35-12.13 73.25-9.1 34.38-25.53 66.35-33.58 101.04 25.4 20.35 45.5 46.63 61.56 74.78 20.5 36.07 34.72 75.41 45.1 115.49 11.61 45.31 18.24 91.82 21.08 138.48 2.95 48.68 1.64 97.62-3.9301 146.07-4.5199 38.76-11.79 77.26-22.87 114.69-2.13 6.49-3.61 13.25-6.5599 19.44-5.97-21.18-12.42-42.23-19.52-63.06-0.35-1-0.6801-1.98-0.98-2.9399-0.98-3-2-5.9701-3.0601-8.92-1.97-5.67-3.7-11.44-6.0399-16.96-2.13-6.42-4.38-12.78-7.0601-18.98-0.85-2.71-1.8199-5.37-3.02-7.9199-0.88-2.72-1.84-5.4-2.97-8-0.66-1.6801-1.3199-3.34-2-4.98-6.3-15.81-12.79-31.56-20.02-46.96-1.59-4.51-3.96-8.6699-6.03-12.94-0.6799-1.37-1.33-2.73-1.97-4.0801-3.5-8.1799-7.45-16.24-11.97-23.9-0.7-1.35-1.38-2.69-2.05-4.02-2.2699-4.35-4.1599-8.92-6.95-12.97-1.53-3.08-3.0601-6.16-4.9399-9.02-0.9401-1.71-1.9401-3.3701-3.04-4.95-1.1901-2.42-2.4301-4.81-3.9501-7.02-1.1699-2.07-2.38-4.1-3.63-6.1-1.09-1.8-2.1299-3.6-3.1599-5.4-0.3101-0.31-0.9401-0.93-1.25-1.25-1.47-3.47-3.8101-6.43-5.8201-9.57-3.33-5.03-6.8099-9.97-9.9399-15.12-0.3-0.33-0.9-1-1.21-1.34-1.7001-3-3.8401-5.7-5.8201-8.5-3.77-5.4901-7.92-10.69-12.01-15.93-2.22-3.11-4.85-5.89-6.9399-9.08-1.8101-1.9-3.74-3.72-5.03-6.02-3.3-3.16-5.63-7.17-9.04-10.22-3-2.75-4.95-6.42-8.03-9.09-10.57-10.06-20.23-21.14-31.48-30.44-10.23-9.06-20.92-17.67-32.24-25.35-0.34-0.29-1.01-0.86-1.34-1.15-4.16-2.5-8.14-5.27-12.13-8-3.73-2.34-7.47-4.66-11.31-6.81-1.61-1.06-3.2599-2.04-4.9199-2.97-1.42-0.64-2.84-1.27-4.24-1.89-0.3401-0.34-1.03-1.02-1.37-1.37-6.87-3.06-13.31-7.07-20.37-9.68-2.9501-1.45-5.89-2.9-8.9601-4.05-1.6599-0.68-3.3199-1.35-4.98-1.98-42.61-17.02-88.81-24.51-134.6-23.57-64.48 1.44-127.89 17.87-187.63 41.53-10.35 3.92-20.49 8.34-30.68 12.62l-0.09 0.41c-3.0499 0.95-5.91 2.37-8.83 3.62l-0.21 0.38c-5.39 1.84-10.39 4.64-15.43 7.25l-1.52-0.12-0.03 1.44c-0.49-0.15-1.48-0.47-1.98-0.62l0.0701 1.02c-7.7201 2.71-14.69 7.15-22.07 10.63v0.96c-0.5-0.15-1.49-0.45-1.98-0.6l-0.01 1.55c-0.48-0.12-1.46-0.38-1.95-0.5l-0.0699 1.46c-0.47-0.1-1.41-0.31-1.88-0.41l-0.14 0.94c-5.08 2.23-9.88 5.04-14.8 7.6l-0.22 0.5c-1.84 0.65-3.66 1.3199-5.5 1.92 2.12-8.8 5.32-17.32 7.31-26.16 3.19-13.11 6.58-26.46 5.94-40.06-0.29-7.74-3.83-15.82-10.79-19.73-5.4-2.19-11.39-3.17-17.15-2.04-14.03 1.48-27.51 5.87-40.91 10.03-43.31 13.75-86.87 28.67-132.47 32.34-5.36 0.09-10.63 1.22-15.99 1.01-6.67-0.25-13.26 1.05-19.92 0.96-7.36 0.19-14.76-0.07-22.08 0.86-11.65 0.41-23.34-0.15-34.95 0.96-21.69 0.6-43.43-0.19-65.08 1.16-20.98-0.07-41.96 0.16-62.94 0.39-12.99 1.2-26.06 0.28-39.06 0.99-8.88 1.19-17.89 0.15-26.77 1.28-41.25 2.16-83 6.15-122.43 19.29-12.25 4.53-24.37 9.55-35.6 16.28-3.75 2.22-7.3 4.76-10.98 7.08-3.97 2.74-7.78 5.71-11.5 8.78-21.55 17.58-37.54 41.07-49.53 65.97-14.29 29.99-23.39 62.16-30.42 94.54-13.91 65.94-19.74 133.27-24.05 200.42-0.76-0.78-1.35-1.66-1.76-2.62-10.58-29.66-21.14-59.32-32-88.87-0.37-1-0.73-1.98-1.1-2.95-1.22-3.7101-2.45-7.42-4.02-10.99-4.15-12.28-8.89-24.34-13.3-36.51-17.03-50.53-27.32-103.44-29.64-156.71-1.01-15.31-0.44-30.7-0.33-46.04 0.9-6.6 0.59-13.29 1.38-19.89 3.12-41.67 11.77-82.96 25.9-122.31 1.11-2.61 2.09-5.2599 3-7.9399 0.7-1.66 1.38-3.33 2.06-4.9901 0.66-1.67 1.32-3.33 1.97-4.99 1.05-2.31 2.07-4.63 3-6.98 1.82-3.95 3.7-7.86 5.46-11.82 17.29-35.65 39.78-68.88 67.27-97.46 24.84-26.07 53.63-48.3 84.83-66.25 9.26-5.43 18.93-10.11 28.79-14.33 13.59-5.88 28.2-11.11 38.58-22.17 6.24-6.1 10.54-13.74 14.79-21.25 20.94-29.34 47.42-54.51 76.92-75.12 32.17-22.5 67.82-39.68 104.68-53 41.1-14.8 83.77-24.93 126.79-32.27 81.6-13.73 164.48-17.63 247.1-18.27 115.04-0.65 229.92 6.27 344.9 8.7 48.72 0.65 97.56 0.87 146.11-3.82 24.84-2.5698 49.73-6.3198 73.59-13.89z"/>
	<path d="m376.98 1254.2c53.96-2.4801 107.98-3.8401 162-4.12 27.34-0.52 54.68 0.1399 82.01 0.45 48.33 0.89 96.71 2.52 144.79 7.65 21.55 2.27 42.95 6.4299 63.44 13.53 21.66 7.25 42.11 17.6 63.56 25.4 38.19 14.3 80.97 16.07 120.14 4.62 21.35-6.13 41.32-16.02 61.92-24.17 18.79-7.49 38.3-13.27 58.29-16.52 22.16-3.51 44.56-5.25 66.93-6.78 52.57-3.36 105.26-4.0599 157.93-4.36 104.45 0.4399 208.99 3.46 313.04 12.97 32.6 3.3101 65.25 7 97.27 14.16-1.3301 43.74-2.42 87.56-7.0901 131.1-1.4199 10.97-2.8099 22.05-6.3099 32.59-1.84 5.26-4.52 10.84-9.72 13.48-5.2101 2.3899-11.14 2.0499-16.51 3.8899-8.5801 2.66-15.08 9.42-20.2 16.52-8.4299 11.83-14.39 25.19-19.83 38.6-6.27 15.48-10.86 31.56-15.68 47.53-4.64 15.28-10.15 30.6-19.5 43.7-6.7999 9.33-14.65 18.35-24.86 24.03-4.34 2.52-8.9199 4.5701-13.46 6.6801-29.98 11.87-61.97 17.34-93.73 21.97-44.86 6.1801-90.11 9.2101-135.38 9.8301-13 0.5699-26.04 0.5299-39.04 0.0599-48.54-0.72-97.19-3.99-144.98-12.81-21.49-4.12-42.91-9.3501-63.13-17.84-13.32-5.76-26.72-12.98-35.75-24.68-12.26-16.89-21.5-35.83-28.53-55.43-6.75-18.58-11.67-37.78-18.86-56.2-5.59-14.33-13.02-28.13-23.26-39.69-6.13-5.96-11.81-12.5-18.9-17.38-1.37-0.97-2.68-1.97-3.99-2.99-2.86-2.24-5.98-4.09-9.03-6.03-2.27-1.5599-4.66-2.9099-7.1-4.1299-6.9901-4.4301-14.65-7.66-22.15-11.1-6.43-0.1499-12.87-0.0399-19.3-0.11-3.58-0.28-6.68 1.75-9.87 3.02-5.26 2.59-10.66 4.98-15.61 8.16-2.4 1.21-4.73 2.53-7.01 3.9399-6.92 4.17-13.42 9.03-19.57 14.27-6.53 6.51-13.56 12.65-18.75 20.35-9.68 13.24-16.19 28.47-21.43 43.94-6.62 19.42-11.94 39.32-20 58.23-6.27 14.72-13.9 28.94-23.41 41.84-10.35 12.87-25.65 20.37-40.66 26.42-21.93 8.5699-45.09 13.48-68.25 17.37-49.68 8.27-100.11 10.65-150.4 11.17-51.07-0.26-102.21-2.7301-152.86-9.55-24.39-3.3-48.7-7.5601-72.47-13.97-16.28-4.67-32.88-9.8-46.9-19.61-15.06-12.07-25.79-28.88-32.36-46.9-7.18-19.66-11.84-40.16-19.43-59.68-6.34-16.17-13.19-32.51-24.16-46.15-4.13-5.72-10.08-9.8999-16.49-12.69-6.21-1.88-12.73-2.26-18.91-4.23-2.64-2.38-4.97-5.0801-6.85-8.0901-1.49-4-3.08-7.97-4.02-12.14-3.68-17.23-5.52-34.79-6.6-52.34-1.02-5.84-0.37-11.81-1.36-17.64-0.61-5.98-0.01-12.03-0.97-17.98-0.53-7.45-0.18-14.93-0.57-22.38-0.77-8.97-0.49-17.98-0.89-26.96-0.2-6.67-0.58-13.34-0.51-20.02 24.43-5.4199 49.23-8.87 74.08-11.66 50.25-5.57 100.72-8.74 151.2-11.14m32 31.77c-24.27 1.5901-48.68 4.52-71.89 12.1-11.99 3.85-23.42 9.4099-33.74 16.62l0.13 0.4299c-2.71 1.52-5.22 3.39-7.39 5.61-3.45 3.5-7.3 6.6901-10.04 10.82-2.13 2.4-4.14 4.9199-5.89 7.63-11.93 17.62-17.21 38.85-19.32 59.79-2.51 25.84-0.59 51.91 2.97 77.56 4.77 33.58 14.33 67.48 34.47 95.26 11.16 15.44 25.66 28.4 42.15 37.94 31.15 17.97 67.25 24.74 102.65 28.13 26.55 2.54 53.25 3.0901 79.91 3.14 28.48-0.09 56.96-0.0699 85.43-1.03 23.95-0.49 47.92-1.72 71.73-4.4199 20.39-2.49 40.83-6.0901 60.05-13.55 14.29-5.53 27.88-13.27 39.07-23.83 15.64-14.17 26.47-32.82 34.34-52.21 6.97-17.53 12.25-35.73 16.13-54.18 0.78-2.99 1.48-5.98 1.98-9.01 4.28-21.06 8.33-42.24 9.36-63.74-0.14-20.91-3.61-42.35-14.07-60.76-0.62-0.95-1.23-1.88-1.81-2.8-3.03-5.4399-6.87-10.4-11.31-14.75-1.88-3.0399-4.31-5.86-7.5-7.5499l0.27-0.29c-2.1-1.62-4.02-3.5-6.35-4.76l0.48-0.45c-1.45-0.84-2.88-1.67-4.33-2.4601l0.12-0.5099c-6.37-4.2101-12.86-8.28-19.78-11.55-2.96-1.42-5.93-2.8-8.95-4.0601-1.68-0.6699-3.35-1.33-5.0099-1.98-28.08-10.73-58.04-15.45-87.83-18.42-24.63-2.1901-49.34-3.37-74.07-3.38-10.64-0.65-21.3-0.3301-31.95-0.49-30-0.04-60.01-0.26-90.01-0.39-23.35-0.0302-46.71-0.0903-70 1.5398m810.03 5.84c-20.99 3.2899-41.97 7.61-61.82 15.34-1.6799 0.64-3.35 1.3099-5.0099 1.99-3.7401 1.51-7.3601 3.27-10.96 5.08-8.2899 3.89-15.74 9.2101-23.05 14.64-1.13 1.01-2.2101 2.05-3.29 3.1-2.95 2.1901-5.7 4.64-8.24 7.29-0.13 0.42-0.38 1.27-0.51 1.6901-2.64 1.5-4.38 4.0199-6.02 6.5l-0.41 0.0599c-6.5299 8.9301-11.83 18.79-15.14 29.36-7.0601 21.74-6.92 45.13-3.7201 67.56 3 19.08 6.54 38.09 11.15 56.85 4.79 19.36 10.71 38.55 19.39 56.55 7.8099 16.09 18.11 31.25 31.8 42.92 10.76 9.3401 23.39 16.38 36.68 21.42 19.56 7.45 40.32 11.09 61.03 13.53 23.26 2.5699 46.66 3.7799 70.05 4.25 29 1 58.03 0.97 87.04 1.0599 24.95-0.04 49.92-0.6 74.79-2.75 32.84-2.96 66.14-8.49 96.05-22.99 26.71-12.75 49.31-34.11 63.1-60.34 1.8999-3.36 3.8199-6.75 4.9399-10.46l0.4501-0.0299c12.98-29.39 18.56-61.39 21.28-93.22 1.2001-7.3099 0.35-14.75 1.3301-22.08 0.35-5.25 0.35-10.54-0.27-15.76-0.67-20.05-3.66-40.48-11.94-58.9-1.2999-3.9299-3.39-7.5-5.5299-11-5.0801-8.8999-11.8-16.77-19.41-23.58-0.99-0.61-1.91-1.26-2.7001-2.05-4.0599-3.5599-8.61-6.5-13.16-9.38-0.23-0.0099-0.6801-0.0399-0.91-0.0499-3.33-2.4401-7.14-4.09-10.88-5.73-17.83-7.6801-37.01-11.63-56.18-14.13-26.18-3.24-52.6-4.0901-78.97-4.12-29.31-0.0801-58.63 0.26-87.95 0.34-51.06 0.2501-102.34-0.1499-153.01 7.0401z"/>
</svg>